<?xml version="1.0" standalone="no"?>
<!DOCTYPE svg PUBLIC "-//W3C//DTD SVG 20010904//EN"
 "http://www.w3.org/TR/2001/REC-SVG-20010904/DTD/svg10.dtd">
<svg version="1.0" xmlns="http://www.w3.org/2000/svg"
 width="1275.000000pt" height="1477.000000pt" viewBox="0 0 1275.000000 1477.000000"
 preserveAspectRatio="xMidYMid meet">
<metadata>
Created by potrace 1.15, written by Peter Selinger 2001-2017
</metadata>
<g transform="translate(0.000000,1477.000000) scale(0.100000,-0.100000)"
fill="#000000" stroke="none">
<path d="M5960 14755 c0 -13 23 -15 150 -15 144 0 150 -1 150 -20 0 -21 -1086
-8721 -1095 -8777 l-6 -31 -74 29 c-339 130 -737 229 -1115 276 -204 25 -814
25 -1004 0 -444 -60 -826 -179 -1236 -387 -765 -388 -1318 -1042 -1569 -1855
-50 -164 -119 -461 -138 -595 -26 -191 -23 -559 6 -749 41 -271 107 -485 226
-743 71 -153 77 -165 143 -285 98 -175 333 -501 485 -673 74 -83 250 -247 353
-329 129 -102 385 -246 589 -331 266 -110 793 -234 1111 -261 235 -20 686 0
924 41 30 5 71 11 90 14 153 23 480 106 645 164 444 155 829 382 1215 718 152
132 347 333 460 474 24 30 50 62 57 70 34 39 263 365 263 375 0 2 54 94 120
205 66 111 130 220 141 243 12 23 25 47 30 53 27 34 217 440 278 594 23 58 46
114 50 125 86 210 262 835 312 1105 6 36 15 71 18 78 8 15 146 -78 632 -424
604 -430 850 -581 1285 -786 200 -94 549 -219 684 -244 14 -3 43 -10 65 -16
22 -5 49 -12 60 -14 11 -1 61 -10 111 -18 49 -9 106 -18 125 -21 18 -3 133 -8
254 -11 246 -7 441 8 641 51 309 65 628 271 854 552 264 326 447 782 489 1217
15 154 14 196 -4 196 -12 0 -15 -14 -15 -66 0 -37 -7 -113 -15 -170 -70 -471
-352 -888 -805 -1189 -372 -247 -615 -318 -1140 -331 -378 -10 -711 39 -1095
163 -444 142 -1117 500 -1609 855 -129 94 -439 328 -461 349 -5 6 53 9 149 8
146 0 178 3 164 16 -2 3 -73 5 -156 6 -89 0 -152 4 -152 10 0 16 1260 10093
1264 10109 2 8 3 -2264 2 -5050 l-1 -5065 -152 -3 c-91 -1 -153 -6 -153 -12 0
-6 32 -10 73 -10 1061 -3 1863 2 1871 10 7 7 -7 10 -39 10 -28 1 -99 2 -160 3
l-110 2 -3 5172 -2 5172 157 3 c114 2 157 6 161 16 3 9 -196 12 -972 12 -861
0 -976 -2 -976 -15 0 -13 23 -15 150 -15 149 0 150 0 150 -22 -1 -13 -142
-1146 -314 -2518 -195 -1559 -315 -2484 -319 -2465 -5 23 -627 4982 -627 5000
0 3 68 6 152 7 110 2 152 6 156 16 3 9 -196 12 -972 12 -861 0 -976 -2 -976
-15z m310 -4826 c0 -3669 -3 -4589 -13 -4583 -6 4 -41 26 -77 49 -213 135
-559 317 -830 436 l-155 69 1 37 c1 40 1067 8583 1071 8583 2 0 3 -2066 3
-4591z m1640 -2810 l-308 -2454 0 4910 0 4910 308 -2456 308 -2455 -308 -2455z
m-3615 -1423 c175 -22 393 -60 545 -96 145 -34 258 -65 267 -73 5 -6 -119
-1036 -133 -1109 l-6 -28 -154 0 c-96 0 -154 -4 -154 -10 0 -6 115 -10 325
-10 210 0 325 4 325 10 0 6 -58 10 -155 10 -85 0 -155 3 -155 8 1 26 140 1115
144 1119 13 13 474 -158 716 -267 116 -52 374 -183 398 -202 9 -8 12 -83 10
-332 l-3 -321 -152 -3 c-210 -4 -202 -22 10 -22 89 0 416 -1 727 -2 l565 -3
42 -28 42 -29 -63 -181 c-293 -840 -527 -1306 -1001 -1992 -219 -317 -331
-450 -566 -680 -239 -233 -511 -440 -774 -587 -515 -290 -1164 -529 -1625
-599 -268 -40 -756 -35 -1028 11 -407 70 -977 325 -1337 600 -317 242 -651
652 -815 1003 -184 392 -241 885 -159 1377 61 369 166 648 360 958 163 263
411 543 629 712 266 205 653 412 985 527 335 115 868 218 1335 257 123 10 732
-3 855 -18z"/>
</g>
</svg>
